<svg xmlns="http://www.w3.org/2000/svg" width="860" height="260" viewBox="0 0 860 260" class="chart" role="img" aria-label="grafico" preserveAspectRatio="none" data-chart="line" data-points="[{&quot;t&quot;:1783843200000,&quot;v&quot;:10000},{&quot;t&quot;:1783843200000,&quot;v&quot;:10000},{&quot;t&quot;:1783857600000,&quot;v&quot;:10000},{&quot;t&quot;:1783872000000,&quot;v&quot;:10000},{&quot;t&quot;:1783886400000,&quot;v&quot;:10000},{&quot;t&quot;:1783900800000,&quot;v&quot;:10000},{&quot;t&quot;:1783915200000,&quot;v&quot;:10000},{&quot;t&quot;:1783929600000,&quot;v&quot;:10000},{&quot;t&quot;:1783944000000,&quot;v&quot;:10000},{&quot;t&quot;:1783958400000,&quot;v&quot;:10000},{&quot;t&quot;:1783972800000,&quot;v&quot;:10000},{&quot;t&quot;:1783987200000,&quot;v&quot;:9997.456136344466},{&quot;t&quot;:1784001600000,&quot;v&quot;:9996.48294772723},{&quot;t&quot;:1784016000000,&quot;v&quot;:10019.578494134752},{&quot;t&quot;:1784030400000,&quot;v&quot;:10173.971575515687},{&quot;t&quot;:1784044800000,&quot;v&quot;:10159.792453139258},{&quot;t&quot;:1784059200000,&quot;v&quot;:10198.3614546539},{&quot;t&quot;:1784073600000,&quot;v&quot;:10177.875712307636},{&quot;t&quot;:1784088000000,&quot;v&quot;:10158.146081418372},{&quot;t&quot;:1784102400000,&quot;v&quot;:10173.008956198388},{&quot;t&quot;:1784116800000,&quot;v&quot;:10229.551458766678},{&quot;t&quot;:1784131200000,&quot;v&quot;:10192.943468901805},{&quot;t&quot;:1784145600000,&quot;v&quot;:10172.338573979643},{&quot;t&quot;:1784160000000,&quot;v&quot;:10172.338573979643},{&quot;t&quot;:1784174400000,&quot;v&quot;:10172.338573979643},{&quot;t&quot;:1784188800000,&quot;v&quot;:10172.338573979643},{&quot;t&quot;:1784203200000,&quot;v&quot;:10172.338573979643},{&quot;t&quot;:1784217600000,&quot;v&quot;:10172.338573979643},{&quot;t&quot;:1784232000000,&quot;v&quot;:10172.338573979643},{&quot;t&quot;:1784246400000,&quot;v&quot;:10172.338573979643},{&quot;t&quot;:1784260800000,&quot;v&quot;:10172.338573979643},{&quot;t&quot;:1784275200000,&quot;v&quot;:10172.338573979643},{&quot;t&quot;:1784289600000,&quot;v&quot;:10172.338573979643},{&quot;t&quot;:1784304000000,&quot;v&quot;:10172.338573979643},{&quot;t&quot;:1784318400000,&quot;v&quot;:10172.338573979643},{&quot;t&quot;:1784332800000,&quot;v&quot;:10172.338573979643},{&quot;t&quot;:1784347200000,&quot;v&quot;:10172.338573979643},{&quot;t&quot;:1784361600000,&quot;v&quot;:10172.338573979643},{&quot;t&quot;:1784376000000,&quot;v&quot;:10172.338573979643},{&quot;t&quot;:1784390400000,&quot;v&quot;:10172.338573979643},{&quot;t&quot;:1784404800000,&quot;v&quot;:10172.338573979643},{&quot;t&quot;:1784419200000,&quot;v&quot;:10172.338573979643},{&quot;t&quot;:1784433600000,&quot;v&quot;:10172.338573979643},{&quot;t&quot;:1784448000000,&quot;v&quot;:10172.338573979643},{&quot;t&quot;:1784462400000,&quot;v&quot;:10172.338573979643},{&quot;t&quot;:1784476800000,&quot;v&quot;:10172.338573979643},{&quot;t&quot;:1784491200000,&quot;v&quot;:10172.338573979643},{&quot;t&quot;:1784505600000,&quot;v&quot;:10172.338573979643},{&quot;t&quot;:1784520000000,&quot;v&quot;:10172.338573979643},{&quot;t&quot;:1784534400000,&quot;v&quot;:10172.338573979643},{&quot;t&quot;:1784548800000,&quot;v&quot;:10172.338573979643},{&quot;t&quot;:1784563200000,&quot;v&quot;:10172.338573979643},{&quot;t&quot;:1784577600000,&quot;v&quot;:10172.338573979643},{&quot;t&quot;:1784592000000,&quot;v&quot;:10172.338573979643},{&quot;t&quot;:1784606400000,&quot;v&quot;:10172.338573979643},{&quot;t&quot;:1784620800000,&quot;v&quot;:10172.338573979643},{&quot;t&quot;:1784635200000,&quot;v&quot;:10172.338573979643},{&quot;t&quot;:1784649600000,&quot;v&quot;:10172.338573979643},{&quot;t&quot;:1784664000000,&quot;v&quot;:10172.338573979643},{&quot;t&quot;:1784678400000,&quot;v&quot;:10172.338573979643},{&quot;t&quot;:1784692800000,&quot;v&quot;:10172.338573979643},{&quot;t&quot;:1784707200000,&quot;v&quot;:10172.338573979643},{&quot;t&quot;:1784721600000,&quot;v&quot;:10172.338573979643},{&quot;t&quot;:1784736000000,&quot;v&quot;:10172.338573979643},{&quot;t&quot;:1784750400000,&quot;v&quot;:10172.338573979643},{&quot;t&quot;:1784764800000,&quot;v&quot;:10172.338573979643},{&quot;t&quot;:1784779200000,&quot;v&quot;:10172.338573979643},{&quot;t&quot;:1784793600000,&quot;v&quot;:10172.338573979643},{&quot;t&quot;:1784808000000,&quot;v&quot;:10172.338573979643},{&quot;t&quot;:1784822400000,&quot;v&quot;:10172.338573979643},{&quot;t&quot;:1784836800000,&quot;v&quot;:10172.338573979643},{&quot;t&quot;:1784851200000,&quot;v&quot;:10172.338573979643},{&quot;t&quot;:1784865600000,&quot;v&quot;:10172.338573979643},{&quot;t&quot;:1784880000000,&quot;v&quot;:10172.338573979643},{&quot;t&quot;:1784894400000,&quot;v&quot;:10172.338573979643},{&quot;t&quot;:1784908800000,&quot;v&quot;:10172.338573979643},{&quot;t&quot;:1784923200000,&quot;v&quot;:10172.338573979643},{&quot;t&quot;:1784937600000,&quot;v&quot;:10172.338573979643},{&quot;t&quot;:1784952000000,&quot;v&quot;:10172.338573979643},{&quot;t&quot;:1784966400000,&quot;v&quot;:10168.15733163182},{&quot;t&quot;:1784980800000,&quot;v&quot;:10183.55772009311},{&quot;t&quot;:1784995200000,&quot;v&quot;:10210.49502131051},{&quot;t&quot;:1785009600000,&quot;v&quot;:10208.748625873506},{&quot;t&quot;:1785024000000,&quot;v&quot;:10232.503780547248},{&quot;t&quot;:1785038400000,&quot;v&quot;:10208.096011734118},{&quot;t&quot;:1785052800000,&quot;v&quot;:10226.023322143119},{&quot;t&quot;:1785067200000,&quot;v&quot;:10260.044097229444},{&quot;t&quot;:1785081600000,&quot;v&quot;:10250.583802664867},{&quot;t&quot;:1785096000000,&quot;v&quot;:10342.533219219871},{&quot;t&quot;:1785110400000,&quot;v&quot;:10327.393876414337},{&quot;t&quot;:1785124800000,&quot;v&quot;:10319.30015585764},{&quot;t&quot;:1785139200000,&quot;v&quot;:10303.480789118863},{&quot;t&quot;:1785153600000,&quot;v&quot;:10232.113517291893},{&quot;t&quot;:1785168000000,&quot;v&quot;:10288.237028051026},{&quot;t&quot;:1785182400000,&quot;v&quot;:10127.936722221306},{&quot;t&quot;:1785196800000,&quot;v&quot;:10074.157401450857},{&quot;t&quot;:1785211200000,&quot;v&quot;:10095.322983219505},{&quot;t&quot;:1785225600000,&quot;v&quot;:10088.015010086632},{&quot;t&quot;:1785240000000,&quot;v&quot;:10150.466267541276},{&quot;t&quot;:1785254400000,&quot;v&quot;:10147.27237394311},{&quot;t&quot;:1785268800000,&quot;v&quot;:10148.708125049763},{&quot;t&quot;:1785283200000,&quot;v&quot;:10127.567342618411},{&quot;t&quot;:1785297600000,&quot;v&quot;:10233.02587185876},{&quot;t&quot;:1785312000000,&quot;v&quot;:10226.048121480417},{&quot;t&quot;:1785326400000,&quot;v&quot;:10155.10504884405},{&quot;t&quot;:1785340800000,&quot;v&quot;:10106.217723662456},{&quot;t&quot;:1785355200000,&quot;v&quot;:10157.75074656513},{&quot;t&quot;:1785369600000,&quot;v&quot;:10180.944653079},{&quot;t&quot;:1785384000000,&quot;v&quot;:10163.196158944189},{&quot;t&quot;:1785398400000,&quot;v&quot;:10262.654553786997},{&quot;t&quot;:1785412800000,&quot;v&quot;:10255.123386618454},{&quot;t&quot;:1785427200000,&quot;v&quot;:10264.220827721529},{&quot;t&quot;:1785441600000,&quot;v&quot;:10261.612981620532},{&quot;t&quot;:1785456000000,&quot;v&quot;:10208.096011734118},{&quot;t&quot;:1785470400000,&quot;v&quot;:10153.277729253761},{&quot;t&quot;:1785484800000,&quot;v&quot;:10134.417180625434},{&quot;t&quot;:1785499200000,&quot;v&quot;:9967.354693769335},{&quot;t&quot;:1785513600000,&quot;v&quot;:9967.354693769335},{&quot;t&quot;:1785528000000,&quot;v&quot;:9967.354693769335},{&quot;t&quot;:1785542400000,&quot;v&quot;:9967.354693769335},{&quot;t&quot;:1785556800000,&quot;v&quot;:9967.354693769335},{&quot;t&quot;:1785571200000,&quot;v&quot;:9967.354693769335},{&quot;t&quot;:1785585600000,&quot;v&quot;:9967.354693769335},{&quot;t&quot;:1785600000000,&quot;v&quot;:9967.354693769335},{&quot;t&quot;:1785614400000,&quot;v&quot;:9967.354693769335},{&quot;t&quot;:1785628800000,&quot;v&quot;:9967.354693769335},{&quot;t&quot;:1785643200000,&quot;v&quot;:9967.354693769335},{&quot;t&quot;:1785657600000,&quot;v&quot;:9967.354693769335},{&quot;t&quot;:1785672000000,&quot;v&quot;:9967.354693769335},{&quot;t&quot;:1785686400000,&quot;v&quot;:9967.354693769335},{&quot;t&quot;:1785700800000,&quot;v&quot;:9967.354693769335},{&quot;t&quot;:1785715200000,&quot;v&quot;:9967.354693769335},{&quot;t&quot;:1785729600000,&quot;v&quot;:9967.354693769335},{&quot;t&quot;:1785744000000,&quot;v&quot;:9967.354693769335},{&quot;t&quot;:1785758400000,&quot;v&quot;:9964.949265772506},{&quot;t&quot;:1785772800000,&quot;v&quot;:9978.125874430583},{&quot;t&quot;:1785787200000,&quot;v&quot;:9951.739426714877},{&quot;t&quot;:1785801600000,&quot;v&quot;:9972.886799846925},{&quot;t&quot;:1785816000000,&quot;v&quot;:9964.25671403642},{&quot;t&quot;:1785830400000,&quot;v&quot;:9982.402022663635},{&quot;t&quot;:1785844800000,&quot;v&quot;:9997.441799405593},{&quot;t&quot;:1785859200000,&quot;v&quot;:10005.61496722228},{&quot;t&quot;:1785873600000,&quot;v&quot;:9996.038570260944},{&quot;t&quot;:1785888000000,&quot;v&quot;:10001.831988328011},{&quot;t&quot;:1785902400000,&quot;v&quot;:10000.375892638622},{&quot;t&quot;:1785916800000,&quot;v&quot;:9993.676190947454},{&quot;t&quot;:1785931200000,&quot;v&quot;:10017.294697427884},{&quot;t&quot;:1785945600000,&quot;v&quot;:10051.451771983904},{&quot;t&quot;:1785960000000,&quot;v&quot;:10038.231359617328},{&quot;t&quot;:1785974400000,&quot;v&quot;:10028.096087754464},{&quot;t&quot;:1785988800000,&quot;v&quot;:10049.142259215154},{&quot;t&quot;:1786003200000,&quot;v&quot;:10034.973269988684},{&quot;t&quot;:1786017600000,&quot;v&quot;:10035.711891142328},{&quot;t&quot;:1786032000000,&quot;v&quot;:10021.674313041352},{&quot;t&quot;:1786046400000,&quot;v&quot;:10010.002193197237},{&quot;t&quot;:1786060800000,&quot;v&quot;:10010.002193197237},{&quot;t&quot;:1786075200000,&quot;v&quot;:10010.002193197237},{&quot;t&quot;:1786089600000,&quot;v&quot;:10010.002193197237},{&quot;t&quot;:1786104000000,&quot;v&quot;:10010.002193197237},{&quot;t&quot;:1786118400000,&quot;v&quot;:10010.002193197237},{&quot;t&quot;:1786132800000,&quot;v&quot;:10010.002193197237},{&quot;t&quot;:1786147200000,&quot;v&quot;:10010.002193197237},{&quot;t&quot;:1786161600000,&quot;v&quot;:10010.002193197237},{&quot;t&quot;:1786176000000,&quot;v&quot;:10010.002193197237},{&quot;t&quot;:1786190400000,&quot;v&quot;:10010.002193197237},{&quot;t&quot;:1786204800000,&quot;v&quot;:10010.002193197237},{&quot;t&quot;:1786219200000,&quot;v&quot;:10010.002193197237},{&quot;t&quot;:1786233600000,&quot;v&quot;:10010.002193197237},{&quot;t&quot;:1786248000000,&quot;v&quot;:10010.002193197237},{&quot;t&quot;:1786262400000,&quot;v&quot;:10010.002193197237},{&quot;t&quot;:1786276800000,&quot;v&quot;:10010.002193197237},{&quot;t&quot;:1786291200000,&quot;v&quot;:10010.002193197237},{&quot;t&quot;:1786305600000,&quot;v&quot;:10010.002193197237},{&quot;t&quot;:1786320000000,&quot;v&quot;:10010.002193197237},{&quot;t&quot;:1786334400000,&quot;v&quot;:10010.002193197237},{&quot;t&quot;:1786348800000,&quot;v&quot;:10010.002193197237},{&quot;t&quot;:1786363200000,&quot;v&quot;:10010.002193197237},{&quot;t&quot;:1786377600000,&quot;v&quot;:10010.002193197237},{&quot;t&quot;:1786392000000,&quot;v&quot;:10010.002193197237},{&quot;t&quot;:1786406400000,&quot;v&quot;:10010.002193197237},{&quot;t&quot;:1786420800000,&quot;v&quot;:10010.002193197237},{&quot;t&quot;:1786435200000,&quot;v&quot;:10010.002193197237},{&quot;t&quot;:1786449600000,&quot;v&quot;:10010.002193197237},{&quot;t&quot;:1786464000000,&quot;v&quot;:10010.002193197237},{&quot;t&quot;:1786478400000,&quot;v&quot;:10006.928834601973},{&quot;t&quot;:1786492800000,&quot;v&quot;:10029.695961390897},{&quot;t&quot;:1786507200000,&quot;v&quot;:10029.927894428349},{&quot;t&quot;:1786521600000,&quot;v&quot;:10068.781510139914},{&quot;t&quot;:1786536000000,&quot;v&quot;:9991.608691090583},{&quot;t&quot;:1786550400000,&quot;v&quot;:9989.641125822862},{&quot;t&quot;:1786564800000,&quot;v&quot;:9995.331216341694},{&quot;t&quot;:1786579200000,&quot;v&quot;:10011.469890197759},{&quot;t&quot;:1786593600000,&quot;v&quot;:10032.619284050454},{&quot;t&quot;:1786608000000,&quot;v&quot;:9995.747729421453},{&quot;t&quot;:1786622400000,&quot;v&quot;:9989.534823180697},{&quot;t&quot;:1786636800000,&quot;v&quot;:9988.373225218122},{&quot;t&quot;:1786651200000,&quot;v&quot;:9996.381679723823},{&quot;t&quot;:1786665600000,&quot;v&quot;:9978.90359257647},{&quot;t&quot;:1786680000000,&quot;v&quot;:9941.289852227621},{&quot;t&quot;:1786694400000,&quot;v&quot;:9936.269468354432},{&quot;t&quot;:1786708800000,&quot;v&quot;:9948.070994410136},{&quot;t&quot;:1786723200000,&quot;v&quot;:9945.857966677779},{&quot;t&quot;:1786737600000,&quot;v&quot;:9953.155159868626},{&quot;t&quot;:1786752000000,&quot;v&quot;:9953.898311976129},{&quot;t&quot;:1786766400000,&quot;v&quot;:9956.235037328463},{&quot;t&quot;:1786780800000,&quot;v&quot;:9951.072594469833},{&quot;t&quot;:1786795200000,&quot;v&quot;:9958.662603120465},{&quot;t&quot;:1786809600000,&quot;v&quot;:9961.129790806364},{&quot;t&quot;:1786824000000,&quot;v&quot;:9957.257475468565},{&quot;t&quot;:1786838400000,&quot;v&quot;:9961.508614767537},{&quot;t&quot;:1786852800000,&quot;v&quot;:9954.842472716091},{&quot;t&quot;:1786867200000,&quot;v&quot;:9950.265660777031},{&quot;t&quot;:1786881600000,&quot;v&quot;:9963.092524135805},{&quot;t&quot;:1786896000000,&quot;v&quot;:9959.460839324363},{&quot;t&quot;:1786910400000,&quot;v&quot;:9939.281698678345},{&quot;t&quot;:1786924800000,&quot;v&quot;:9990.423899824264},{&quot;t&quot;:1786939200000,&quot;v&quot;:9998.66138820445},{&quot;t&quot;:1786953600000,&quot;v&quot;:10009.934300212293},{&quot;t&quot;:1786968000000,&quot;v&quot;:10064.912093965082},{&quot;t&quot;:1786982400000,&quot;v&quot;:10075.538492631027},{&quot;t&quot;:1786996800000,&quot;v&quot;:10097.005828022562},{&quot;t&quot;:1787011200000,&quot;v&quot;:10063.46347886866},{&quot;t&quot;:1787025600000,&quot;v&quot;:10064.812556036508},{&quot;t&quot;:1787040000000,&quot;v&quot;:10079.52290893693},{&quot;t&quot;:1787054400000,&quot;v&quot;:10128.216283762411},{&quot;t&quot;:1787068800000,&quot;v&quot;:10107.748193207235},{&quot;t&quot;:1787083200000,&quot;v&quot;:10115.688034189356},{&quot;t&quot;:1787097600000,&quot;v&quot;:10074.435575488498},{&quot;t&quot;:1787112000000,&quot;v&quot;:10074.435575488498},{&quot;t&quot;:1787126400000,&quot;v&quot;:10074.435575488498},{&quot;t&quot;:1787140800000,&quot;v&quot;:10074.435575488498},{&quot;t&quot;:1787155200000,&quot;v&quot;:10074.435575488498},{&quot;t&quot;:1787169600000,&quot;v&quot;:10074.435575488498},{&quot;t&quot;:1787184000000,&quot;v&quot;:10074.435575488498},{&quot;t&quot;:1787198400000,&quot;v&quot;:10074.435575488498},{&quot;t&quot;:1787212800000,&quot;v&quot;:10074.435575488498},{&quot;t&quot;:1787227200000,&quot;v&quot;:10074.435575488498},{&quot;t&quot;:1787241600000,&quot;v&quot;:10074.435575488498},{&quot;t&quot;:1787256000000,&quot;v&quot;:10074.435575488498},{&quot;t&quot;:1787270400000,&quot;v&quot;:10074.435575488498},{&quot;t&quot;:1787284800000,&quot;v&quot;:10074.435575488498},{&quot;t&quot;:1787299200000,&quot;v&quot;:10074.435575488498},{&quot;t&quot;:1787313600000,&quot;v&quot;:10074.435575488498},{&quot;t&quot;:1787328000000,&quot;v&quot;:10074.435575488498},{&quot;t&quot;:1787342400000,&quot;v&quot;:10074.435575488498},{&quot;t&quot;:1787356800000,&quot;v&quot;:10074.435575488498},{&quot;t&quot;:1787371200000,&quot;v&quot;:10074.435575488498},{&quot;t&quot;:1787385600000,&quot;v&quot;:10074.435575488498},{&quot;t&quot;:1787400000000,&quot;v&quot;:10074.435575488498},{&quot;t&quot;:1787414400000,&quot;v&quot;:10074.435575488498},{&quot;t&quot;:1787428800000,&quot;v&quot;:10074.435575488498},{&quot;t&quot;:1787443200000,&quot;v&quot;:10074.435575488498},{&quot;t&quot;:1787457600000,&quot;v&quot;:10074.435575488498},{&quot;t&quot;:1787472000000,&quot;v&quot;:10074.435575488498},{&quot;t&quot;:1787486400000,&quot;v&quot;:10074.435575488498},{&quot;t&quot;:1787500800000,&quot;v&quot;:10074.435575488498},{&quot;t&quot;:1787515200000,&quot;v&quot;:10074.435575488498},{&quot;t&quot;:1787529600000,&quot;v&quot;:10074.435575488498},{&quot;t&quot;:1787544000000,&quot;v&quot;:10074.435575488498},{&quot;t&quot;:1787558400000,&quot;v&quot;:10074.435575488498},{&quot;t&quot;:1787572800000,&quot;v&quot;:10074.435575488498},{&quot;t&quot;:1787587200000,&quot;v&quot;:10074.435575488498},{&quot;t&quot;:1787601600000,&quot;v&quot;:10074.435575488498},{&quot;t&quot;:1787616000000,&quot;v&quot;:10074.435575488498},{&quot;t&quot;:1787630400000,&quot;v&quot;:10074.435575488498},{&quot;t&quot;:1787644800000,&quot;v&quot;:10074.435575488498},{&quot;t&quot;:1787659200000,&quot;v&quot;:10074.435575488498},{&quot;t&quot;:1787673600000,&quot;v&quot;:10074.435575488498},{&quot;t&quot;:1787688000000,&quot;v&quot;:10074.435575488498},{&quot;t&quot;:1787702400000,&quot;v&quot;:10074.435575488498},{&quot;t&quot;:1787716800000,&quot;v&quot;:10074.435575488498},{&quot;t&quot;:1787731200000,&quot;v&quot;:10074.435575488498},{&quot;t&quot;:1787745600000,&quot;v&quot;:10074.435575488498},{&quot;t&quot;:1787760000000,&quot;v&quot;:10074.435575488498},{&quot;t&quot;:1787774400000,&quot;v&quot;:10074.435575488498},{&quot;t&quot;:1787788800000,&quot;v&quot;:10074.435575488498},{&quot;t&quot;:1787803200000,&quot;v&quot;:10074.435575488498},{&quot;t&quot;:1787817600000,&quot;v&quot;:10074.435575488498},{&quot;t&quot;:1787832000000,&quot;v&quot;:10074.435575488498},{&quot;t&quot;:1787846400000,&quot;v&quot;:10074.435575488498},{&quot;t&quot;:1787860800000,&quot;v&quot;:10074.435575488498},{&quot;t&quot;:1787875200000,&quot;v&quot;:10074.435575488498},{&quot;t&quot;:1787889600000,&quot;v&quot;:10074.435575488498},{&quot;t&quot;:1787904000000,&quot;v&quot;:10074.435575488498},{&quot;t&quot;:1787918400000,&quot;v&quot;:10074.435575488498},{&quot;t&quot;:1787932800000,&quot;v&quot;:10074.435575488498},{&quot;t&quot;:1787947200000,&quot;v&quot;:10074.435575488498},{&quot;t&quot;:1787961600000,&quot;v&quot;:10074.435575488498},{&quot;t&quot;:1787976000000,&quot;v&quot;:10074.435575488498},{&quot;t&quot;:1787990400000,&quot;v&quot;:10074.435575488498},{&quot;t&quot;:1788004800000,&quot;v&quot;:10074.435575488498},{&quot;t&quot;:1788019200000,&quot;v&quot;:10074.435575488498},{&quot;t&quot;:1788033600000,&quot;v&quot;:10074.435575488498},{&quot;t&quot;:1788048000000,&quot;v&quot;:10074.435575488498},{&quot;t&quot;:1788062400000,&quot;v&quot;:10074.435575488498},{&quot;t&quot;:1788076800000,&quot;v&quot;:10074.435575488498},{&quot;t&quot;:1788091200000,&quot;v&quot;:10074.435575488498},{&quot;t&quot;:1788105600000,&quot;v&quot;:10074.435575488498},{&quot;t&quot;:1788120000000,&quot;v&quot;:10074.435575488498},{&quot;t&quot;:1788134400000,&quot;v&quot;:10074.435575488498},{&quot;t&quot;:1788148800000,&quot;v&quot;:10074.435575488498},{&quot;t&quot;:1788163200000,&quot;v&quot;:10074.435575488498},{&quot;t&quot;:1788177600000,&quot;v&quot;:10074.435575488498},{&quot;t&quot;:1788192000000,&quot;v&quot;:10074.435575488498},{&quot;t&quot;:1788206400000,&quot;v&quot;:10074.435575488498},{&quot;t&quot;:1788220800000,&quot;v&quot;:10074.435575488498},{&quot;t&quot;:1788235200000,&quot;v&quot;:10074.435575488498},{&quot;t&quot;:1788249600000,&quot;v&quot;:10074.435575488498},{&quot;t&quot;:1788264000000,&quot;v&quot;:10074.435575488498},{&quot;t&quot;:1788278400000,&quot;v&quot;:10074.435575488498},{&quot;t&quot;:1788292800000,&quot;v&quot;:10074.435575488498},{&quot;t&quot;:1788307200000,&quot;v&quot;:10074.435575488498},{&quot;t&quot;:1788321600000,&quot;v&quot;:10074.435575488498},{&quot;t&quot;:1788336000000,&quot;v&quot;:10074.435575488498},{&quot;t&quot;:1788350400000,&quot;v&quot;:10072.59777343067},{&quot;t&quot;:1788364800000,&quot;v&quot;:10075.0938217246},{&quot;t&quot;:1788379200000,&quot;v&quot;:10075.024394585922},{&quot;t&quot;:1788393600000,&quot;v&quot;:10092.52336223087},{&quot;t&quot;:1788408000000,&quot;v&quot;:10090.390617594123},{&quot;t&quot;:1788422400000,&quot;v&quot;:10103.954588166815},{&quot;t&quot;:1788436800000,&quot;v&quot;:10265.615680575398},{&quot;t&quot;:1788451200000,&quot;v&quot;:10284.989180964614},{&quot;t&quot;:1788465600000,&quot;v&quot;:10261.924154016859},{&quot;t&quot;:1788480000000,&quot;v&quot;:10241.9343688898},{&quot;t&quot;:1788494400000,&quot;v&quot;:10232.750489922251},{&quot;t&quot;:1788508800000,&quot;v&quot;:10259.760024509204},{&quot;t&quot;:1788523200000,&quot;v&quot;:10174.377483202294},{&quot;t&quot;:1788537600000,&quot;v&quot;:10191.687190565095},{&quot;t&quot;:1788552000000,&quot;v&quot;:10185.383111267585},{&quot;t&quot;:1788566400000,&quot;v&quot;:10181.637374477476},{&quot;t&quot;:1788580800000,&quot;v&quot;:10187.722235206971},{&quot;t&quot;:1788595200000,&quot;v&quot;:10182.819530618915}]"><rect x="0" y="0" width="860" height="260" fill="#ffffff"/><line x1="56" y1="232.0" x2="844" y2="232.0" class="grid"/><text x="48" y="236.0" class="tick" text-anchor="end">9.900</text><line x1="56" y1="188.0" x2="844" y2="188.0" class="grid"/><text x="48" y="192.0" class="tick" text-anchor="end">10.000</text><line x1="56" y1="144.0" x2="844" y2="144.0" class="grid"/><text x="48" y="148.0" class="tick" text-anchor="end">10.100</text><line x1="56" y1="100.0" x2="844" y2="100.0" class="grid"/><text x="48" y="104.0" class="tick" text-anchor="end">10.200</text><line x1="56" y1="56.0" x2="844" y2="56.0" class="grid"/><text x="48" y="60.0" class="tick" text-anchor="end">10.300</text><line x1="56" y1="12.0" x2="844" y2="12.0" class="grid"/><text x="48" y="16.0" class="tick" text-anchor="end">10.400</text><line x1="56" y1="232.0" x2="844" y2="232.0" class="axis"/><text x="56.0" y="252" class="tick" text-anchor="middle">12-07</text><text x="253.6" y="252" class="tick" text-anchor="middle">26-07</text><text x="451.2" y="252" class="tick" text-anchor="middle">08-08</text><text x="646.4" y="252" class="tick" text-anchor="middle">22-08</text><text x="844.0" y="252" class="tick" text-anchor="middle">05-09</text><path d="M56.00,188.00 L58.38,188.00 L60.76,188.00 L63.14,188.00 L65.52,188.00 L67.90,188.00 L70.28,188.00 L72.66,188.00 L75.05,188.00 L77.43,188.00 L79.81,188.00 L82.19,189.12 L84.57,189.55 L86.95,179.39 L89.33,111.45 L91.71,117.69 L94.09,100.72 L96.47,109.73 L98.85,118.42 L101.23,111.88 L103.61,87.00 L105.99,103.10 L108.37,112.17 L110.76,112.17 L113.14,112.17 L115.52,112.17 L117.90,112.17 L120.28,112.17 L122.66,112.17 L125.04,112.17 L127.42,112.17 L129.80,112.17 L132.18,112.17 L134.56,112.17 L136.94,112.17 L139.32,112.17 L141.70,112.17 L144.08,112.17 L146.47,112.17 L148.85,112.17 L151.23,112.17 L153.61,112.17 L155.99,112.17 L158.37,112.17 L160.75,112.17 L163.13,112.17 L165.51,112.17 L167.89,112.17 L170.27,112.17 L172.65,112.17 L175.03,112.17 L177.41,112.17 L179.79,112.17 L182.18,112.17 L184.56,112.17 L186.94,112.17 L189.32,112.17 L191.70,112.17 L194.08,112.17 L196.46,112.17 L198.84,112.17 L201.22,112.17 L203.60,112.17 L205.98,112.17 L208.36,112.17 L210.74,112.17 L213.12,112.17 L215.50,112.17 L217.89,112.17 L220.27,112.17 L222.65,112.17 L225.03,112.17 L227.41,112.17 L229.79,112.17 L232.17,112.17 L234.55,112.17 L236.93,112.17 L239.31,112.17 L241.69,112.17 L244.07,114.01 L246.45,107.23 L248.83,95.38 L251.21,96.15 L253.60,85.70 L255.98,96.44 L258.36,88.55 L260.74,73.58 L263.12,77.74 L265.50,37.29 L267.88,43.95 L270.26,47.51 L272.64,54.47 L275.02,85.87 L277.40,61.18 L279.78,131.71 L282.16,155.37 L284.54,146.06 L286.92,149.27 L289.31,121.79 L291.69,123.20 L294.07,122.57 L296.45,131.87 L298.83,85.47 L301.21,88.54 L303.59,119.75 L305.97,141.26 L308.35,118.59 L310.73,108.38 L313.11,116.19 L315.49,72.43 L317.87,75.75 L320.25,71.74 L322.63,72.89 L325.02,96.44 L327.40,120.56 L329.78,128.86 L332.16,202.36 L334.54,202.36 L336.92,202.36 L339.30,202.36 L341.68,202.36 L344.06,202.36 L346.44,202.36 L348.82,202.36 L351.20,202.36 L353.58,202.36 L355.96,202.36 L358.34,202.36 L360.73,202.36 L363.11,202.36 L365.49,202.36 L367.87,202.36 L370.25,202.36 L372.63,202.36 L375.01,203.42 L377.39,197.62 L379.77,209.23 L382.15,199.93 L384.53,203.73 L386.91,195.74 L389.29,189.13 L391.67,185.53 L394.05,189.74 L396.44,187.19 L398.82,187.83 L401.20,190.78 L403.58,180.39 L405.96,165.36 L408.34,171.18 L410.72,175.64 L413.10,166.38 L415.48,172.61 L417.86,172.29 L420.24,178.46 L422.62,183.60 L425.00,183.60 L427.38,183.60 L429.76,183.60 L432.15,183.60 L434.53,183.60 L436.91,183.60 L439.29,183.60 L441.67,183.60 L444.05,183.60 L446.43,183.60 L448.81,183.60 L451.19,183.60 L453.57,183.60 L455.95,183.60 L458.33,183.60 L460.71,183.60 L463.09,183.60 L465.47,183.60 L467.85,183.60 L470.24,183.60 L472.62,183.60 L475.00,183.60 L477.38,183.60 L479.76,183.60 L482.14,183.60 L484.52,183.60 L486.90,183.60 L489.28,183.60 L491.66,183.60 L494.04,184.95 L496.42,174.93 L498.80,174.83 L501.18,157.74 L503.56,191.69 L505.95,192.56 L508.33,190.05 L510.71,182.95 L513.09,173.65 L515.47,189.87 L517.85,192.60 L520.23,193.12 L522.61,189.59 L524.99,197.28 L527.37,213.83 L529.75,216.04 L532.13,210.85 L534.51,211.82 L536.89,208.61 L539.27,208.28 L541.66,207.26 L544.04,209.53 L546.42,206.19 L548.80,205.10 L551.18,206.81 L553.56,204.94 L555.94,207.87 L558.32,209.88 L560.70,204.24 L563.08,205.84 L565.46,214.72 L567.84,192.21 L570.22,188.59 L572.60,183.63 L574.98,159.44 L577.37,154.76 L579.75,145.32 L582.13,160.08 L584.51,159.48 L586.89,153.01 L589.27,131.58 L591.65,140.59 L594.03,137.10 L596.41,155.25 L598.79,155.25 L601.17,155.25 L603.55,155.25 L605.93,155.25 L608.31,155.25 L610.69,155.25 L613.08,155.25 L615.46,155.25 L617.84,155.25 L620.22,155.25 L622.60,155.25 L624.98,155.25 L627.36,155.25 L629.74,155.25 L632.12,155.25 L634.50,155.25 L636.88,155.25 L639.26,155.25 L641.64,155.25 L644.02,155.25 L646.40,155.25 L648.79,155.25 L651.17,155.25 L653.55,155.25 L655.93,155.25 L658.31,155.25 L660.69,155.25 L663.07,155.25 L665.45,155.25 L667.83,155.25 L670.21,155.25 L672.59,155.25 L674.97,155.25 L677.35,155.25 L679.73,155.25 L682.11,155.25 L684.50,155.25 L686.88,155.25 L689.26,155.25 L691.64,155.25 L694.02,155.25 L696.40,155.25 L698.78,155.25 L701.16,155.25 L703.54,155.25 L705.92,155.25 L708.30,155.25 L710.68,155.25 L713.06,155.25 L715.44,155.25 L717.82,155.25 L720.21,155.25 L722.59,155.25 L724.97,155.25 L727.35,155.25 L729.73,155.25 L732.11,155.25 L734.49,155.25 L736.87,155.25 L739.25,155.25 L741.63,155.25 L744.01,155.25 L746.39,155.25 L748.77,155.25 L751.15,155.25 L753.53,155.25 L755.92,155.25 L758.30,155.25 L760.68,155.25 L763.06,155.25 L765.44,155.25 L767.82,155.25 L770.20,155.25 L772.58,155.25 L774.96,155.25 L777.34,155.25 L779.72,155.25 L782.10,155.25 L784.48,155.25 L786.86,155.25 L789.24,155.25 L791.63,155.25 L794.01,155.25 L796.39,155.25 L798.77,155.25 L801.15,155.25 L803.53,156.06 L805.91,154.96 L808.29,154.99 L810.67,147.29 L813.05,148.23 L815.43,142.26 L817.81,71.13 L820.19,62.60 L822.57,72.75 L824.95,81.55 L827.34,85.59 L829.72,73.71 L832.10,111.27 L834.48,103.66 L836.86,106.43 L839.24,108.08 L841.62,105.40 L844.00,107.56" fill="none" stroke="#3987e5" stroke-width="2" stroke-linejoin="round" stroke-linecap="round"/><circle cx="844.00" cy="107.56" r="4" fill="#3987e5" stroke="#fcfcfb" stroke-width="2"/><line class="cross" x1="0" y1="12" x2="0" y2="232.0" style="display:none"/><circle class="hdot" r="4.5" style="display:none" stroke="#fcfcfb" stroke-width="2"/><rect class="hitzone" x="56" y="12" width="788" height="220" fill="transparent"/></svg>