<svg xmlns="http://www.w3.org/2000/svg" width="860" height="180" viewBox="0 0 860 180" class="chart" role="img" aria-label="PnL mensile"><rect x="0" y="0" width="860" height="180" fill="#ffffff"/><line x1="56" y1="154.0" x2="844" y2="154.0" class="grid"/><text x="48" y="158.0" class="tick" text-anchor="end">-1.000</text><line x1="56" y1="118.0" x2="844" y2="118.0" class="grid"/><text x="48" y="122.0" class="tick" text-anchor="end">-.500</text><line x1="56" y1="82.0" x2="844" y2="82.0" class="grid"/><text x="48" y="86.0" class="tick" text-anchor="end">0</text><line x1="56" y1="46.0" x2="844" y2="46.0" class="grid"/><text x="48" y="50.0" class="tick" text-anchor="end">500</text><line x1="56" y1="10.0" x2="844" y2="10.0" class="grid"/><text x="48" y="14.0" class="tick" text-anchor="end">1.000</text><line x1="56" y1="82.0" x2="844" y2="82.0" class="axis"/><rect x="175.33" y="84.00" width="24.00" height="9.82" fill="#e66767" rx="0" class="bar" data-lbl="2026-06" data-val="-$164,19"><title>2026-06: -$164,19</title></rect><text x="187.33" y="172" class="tick" text-anchor="middle">26-06</text><rect x="438.00" y="68.87" width="24.00" height="13.13" fill="#3987e5" rx="0" class="bar" data-lbl="2026-07" data-val="$210,16"><title>2026-07: $210,16</title></rect><text x="450.00" y="172" class="tick" text-anchor="middle">26-07</text><rect x="700.67" y="22.86" width="24.00" height="59.14" fill="#3987e5" rx="0" class="bar" data-lbl="2026-08" data-val="$849,17"><title>2026-08: $849,17</title></rect><text x="712.67" y="172" class="tick" text-anchor="middle">26-08</text></svg>